<svg width="32" height="32" viewBox="0 0 32 32" xmlns="http://www.w3.org/2000/svg">
  <defs>
    <linearGradient id="wave-gradient" x1="0%" y1="0%" x2="100%" y2="100%">
      <stop offset="0%" style="stop-color:#4c9aff;stop-opacity:1" />
      <stop offset="100%" style="stop-color:#7b68ee;stop-opacity:1" />
    </linearGradient>
    <linearGradient id="bg-gradient" x1="0%" y1="0%" x2="100%" y2="100%">
      <stop offset="0%" style="stop-color:#0f0f23;stop-opacity:1" />
      <stop offset="50%" style="stop-color:#1a1a3a;stop-opacity:1" />
      <stop offset="100%" style="stop-color:#2d1b69;stop-opacity:1" />
    </linearGradient>
  </defs>
  
  <!-- Background Circle -->
  <circle cx="16" cy="16" r="16" fill="url(#bg-gradient)" />
  
  <!-- Wave Pattern -->
  <path d="M4 18 Q8 14 12 18 T20 18 T28 18 V28 Q24 24 20 28 T12 28 T4 28 Z" fill="url(#wave-gradient)" opacity="0.8" />
  <path d="M4 22 Q8 18 12 22 T20 22 T28 22 V28 H4 Z" fill="url(#wave-gradient)" opacity="0.6" />
  
  <!-- Crown Symbol (representing guild leadership) -->
  <path d="M10 8 L12 12 L16 6 L20 12 L22 8 L21 16 L11 16 Z" fill="#ffd700" opacity="0.9" />
  <circle cx="16" cy="6" r="1.5" fill="#ffd700" />
  <circle cx="12" cy="8" r="1" fill="#ffd700" />
  <circle cx="20" cy="8" r="1" fill="#ffd700" />
  
  <!-- Subtle glow effect -->
  <circle cx="16" cy="16" r="14" fill="none" stroke="url(#wave-gradient)" stroke-width="0.5" opacity="0.5" />
</svg>
